<svg aria-hidden="true" style="position: absolute; width: 0; height: 0; overflow: hidden;" version="1.1" xmlns="http://www.w3.org/2000/svg" xmlns:xlink="http://www.w3.org/1999/xlink">
<defs>
<symbol id="icon-facebook-1" viewBox="0 0 16 16">
<path d="M10.665 2.657h1.461v-2.544c-0.252-0.035-1.119-0.113-2.128-0.113-2.106 0-3.549 1.325-3.549 3.759v2.241h-2.324v2.844h2.324v7.156h2.849v-7.155h2.23l0.354-2.844h-2.585v-1.959c0.001-0.822 0.222-1.385 1.367-1.385z"></path>
</symbol>
<symbol id="icon-instagram-2" viewBox="0 0 16 16">
  <path d="M15.984 4.704c-0.037-0.85-0.175-1.435-0.372-1.941-0.203-0.538-0.516-1.019-0.925-1.419-0.4-0.406-0.885-0.722-1.416-0.922-0.509-0.197-1.091-0.334-1.941-0.372-0.857-0.041-1.128-0.050-3.301-0.050s-2.444 0.009-3.298 0.047c-0.85 0.037-1.435 0.175-1.941 0.372-0.538 0.203-1.019 0.516-1.419 0.925-0.406 0.4-0.722 0.885-0.922 1.416-0.197 0.51-0.334 1.091-0.372 1.941-0.041 0.856-0.050 1.128-0.050 3.301s0.009 2.444 0.047 3.298c0.037 0.85 0.175 1.435 0.372 1.941 0.203 0.538 0.519 1.019 0.925 1.419 0.4 0.406 0.885 0.722 1.416 0.922 0.51 0.197 1.091 0.335 1.941 0.372 0.853 0.038 1.125 0.047 3.298 0.047s2.444-0.009 3.298-0.047c0.85-0.037 1.435-0.175 1.941-0.372 1.075-0.416 1.925-1.266 2.341-2.341 0.197-0.509 0.334-1.091 0.372-1.941 0.038-0.853 0.047-1.125 0.047-3.298s-0.003-2.444-0.041-3.298zM14.543 11.236c-0.034 0.781-0.166 1.203-0.275 1.485-0.269 0.697-0.822 1.25-1.519 1.519-0.281 0.109-0.706 0.241-1.485 0.275-0.844 0.038-1.097 0.047-3.232 0.047s-2.391-0.009-3.232-0.047c-0.781-0.034-1.203-0.166-1.485-0.275-0.347-0.128-0.663-0.331-0.919-0.597-0.266-0.259-0.469-0.572-0.597-0.919-0.109-0.281-0.241-0.706-0.275-1.485-0.038-0.844-0.047-1.097-0.047-3.232s0.009-2.391 0.047-3.232c0.034-0.781 0.166-1.203 0.275-1.485 0.128-0.347 0.331-0.663 0.6-0.919 0.259-0.266 0.572-0.469 0.919-0.597 0.281-0.109 0.706-0.241 1.485-0.275 0.844-0.037 1.097-0.047 3.232-0.047 2.138 0 2.391 0.009 3.232 0.047 0.781 0.034 1.203 0.166 1.485 0.275 0.347 0.128 0.663 0.331 0.919 0.597 0.266 0.259 0.469 0.572 0.597 0.919 0.109 0.281 0.241 0.706 0.275 1.485 0.037 0.844 0.047 1.097 0.047 3.232s-0.009 2.385-0.047 3.229z"></path>
<path d="M8.030 3.891c-2.269 0-4.11 1.841-4.11 4.11s1.841 4.11 4.11 4.11c2.269 0 4.11-1.841 4.11-4.11s-1.841-4.11-4.11-4.11zM8.030 10.668c-1.472 0-2.666-1.194-2.666-2.666s1.194-2.666 2.666-2.666c1.472 0 2.666 1.194 2.666 2.666s-1.194 2.666-2.666 2.666z"></path>
<path d="M13.262 3.729c0 0.53-0.43 0.96-0.96 0.96s-0.96-0.43-0.96-0.96c0-0.53 0.43-0.96 0.96-0.96s0.96 0.43 0.96 0.96z"></path>
</symbol>
<symbol id="icon-twitter-1" viewBox="0 0 16 16">
<path d="M16 3.039c-0.595 0.261-1.229 0.434-1.89 0.518 0.68-0.406 1.199-1.044 1.443-1.813-0.634 0.378-1.334 0.645-2.080 0.794-0.602-0.641-1.46-1.038-2.396-1.038-1.816 0-3.278 1.474-3.278 3.281 0 0.26 0.022 0.51 0.076 0.748-2.727-0.133-5.14-1.44-6.761-3.431-0.283 0.491-0.449 1.053-0.449 1.658 0 1.136 0.585 2.143 1.457 2.726-0.527-0.010-1.044-0.163-1.482-0.404 0 0.010 0 0.023 0 0.036 0 1.594 1.137 2.918 2.628 3.223-0.267 0.073-0.558 0.108-0.86 0.108-0.21 0-0.422-0.012-0.621-0.056 0.425 1.299 1.631 2.254 3.065 2.285-1.116 0.873-2.533 1.399-4.067 1.399-0.269 0-0.527-0.012-0.785-0.045 1.453 0.937 3.175 1.472 5.032 1.472 6.036 0 9.336-5 9.336-9.334 0-0.145-0.005-0.285-0.012-0.424 0.651-0.462 1.198-1.039 1.644-1.703z"></path>
</symbol>
<symbol id="icon-linkedin-1" viewBox="0 0 16 16">
<path d="M15.996 16v-0.001h0.004v-5.868c0-2.871-0.618-5.082-3.974-5.082-1.613 0-2.696 0.885-3.138 1.725h-0.047v-1.457h-3.182v10.682h3.313v-5.289c0-1.393 0.264-2.739 1.989-2.739 1.699 0 1.725 1.589 1.725 2.829v5.201h3.31z"></path>
<path d="M0.264 5.318h3.317v10.682h-3.317v-10.682z"></path>
<path d="M1.921-0c-1.061 0-1.921 0.861-1.921 1.921s0.861 1.939 1.921 1.939c1.061 0 1.921-0.879 1.921-1.939s-0.861-1.921-1.921-1.921v0z"></path>
</symbol>
<symbol id="icon-antenna-1" viewBox="0 0 168 168">
<path fill="#2e2f42" style="fill: var(--color1, #2e2f42)" d="M161.559 116.012l-44.327-44.652 4.92-24.231c1.27 0.496 2.619 0.755 3.982 0.764h0.034c6.26 0.074 11.393-4.94 11.468-11.2s-4.94-11.393-11.2-11.468c-6.26-0.074-11.393 4.94-11.468 11.2-0.016 1.339 0.206 2.671 0.655 3.933l-26.040 3.178-42.476-42.697c-0.521-0.532-1.232-0.834-1.977-0.84-0.735 0.004-1.439 0.296-1.96 0.815l-7.941 7.896c-1.093 1.093-1.093 2.866 0 3.959l4.273 4.334c-16.553 30.439-11.177 68.134 13.227 92.73 0.224 0.214 0.483 0.388 0.767 0.512-0.176 0.948-0.268 1.909-0.274 2.873v32.48h-33.6c-7.728 0.009-13.991 6.272-14 14v5.6c0 1.546 1.254 2.8 2.8 2.8h128.8c1.546 0 2.8-1.254 2.8-2.8v-5.6c-0.009-7.728-6.272-13.991-14-14h-33.6v-14.395c5.264 1.104 10.626 1.667 16.005 1.68 12.905-0.014 25.605-3.231 36.96-9.363l4.295 4.32c0.521 0.532 1.232 0.834 1.977 0.84 0.735-0.004 1.439-0.297 1.96-0.815l7.941-7.896c1.093-1.094 1.093-2.866 0-3.959zM122.219 32.724c2.193-2.181 5.739-2.171 7.92 0.021s2.171 5.739-0.021 7.919c-1.050 1.044-2.47 1.63-3.95 1.63h-0.017c-3.093-0.016-5.587-2.536-5.571-5.629 0.008-1.48 0.601-2.897 1.651-3.941h-0.011zM115.628 51.122l-3.142 15.464-6.171-6.208 9.313-9.257zM112.447 46.388l-10.080 10.021-7.798-7.84 17.878-2.181zM126.021 151.2c4.639 0 8.4 3.761 8.4 8.4v2.8h-123.2v-2.8c0-4.639 3.761-8.4 8.4-8.4h106.4zM86.821 140v5.6h-28v-5.6h28zM58.821 134.4v-21.28c0-6.793 6.281-12.32 14-12.32s14 5.527 14 12.32v21.28h-28zM92.421 125.496v-12.376c0-9.881-8.792-17.92-19.6-17.92-6.988-0.107-13.523 3.45-17.226 9.377-21.303-22.438-26.1-55.887-11.963-83.407l97.66 98.219c-15.080 7.671-32.367 9.831-48.871 6.107zM151.689 121.906l-110.55-111.199 3.962-3.948 41.658 41.894c0.020 0 0.031 0.036 0.051 0.050l68.852 69.255-3.973 3.948z"></path>
<path fill="#4d5ae5" style="fill: var(--color2, #4d5ae5)" d="M72.847 106.4h-0.025c-4.639-0.007-8.406 3.748-8.413 8.387s3.748 8.406 8.387 8.413h0.025c4.639 0.007 8.406-3.748 8.413-8.387s-3.748-8.406-8.387-8.413zM74.807 116.785c-0.527 0.524-1.242 0.817-1.985 0.815-1.546-0.008-2.793-1.268-2.785-2.814 0.004-0.74 0.301-1.449 0.825-1.971 0.521-0.518 1.225-0.811 1.96-0.815 1.546 0.008 2.793 1.268 2.785 2.814-0.004 0.74-0.301 1.449-0.825 1.971h0.025z"></path>
</symbol>
<symbol id="icon-clock-1" viewBox="0 0 168 168">
<path fill="#2e2f42" style="fill: var(--color1, #2e2f42)" d="M164.307 80.332c-0.009-44.375-35.99-80.341-80.367-80.332-44.375 0.009-80.341 35.991-80.332 80.366 0.008 34.954 22.611 65.893 55.909 76.525 0.318 0.1 0.649 0.151 0.981 0.15 0.633-0.001 1.253-0.17 1.798-0.492 0.709-0.419 1.238-1.086 1.487-1.871l20.291-64.313c5.547-0.028 10.021-4.549 9.991-10.095-0.028-5.547-4.548-10.021-10.095-9.992-1.492 0.006-2.965 0.35-4.305 1.005l-26.806-26.81c-1.33-1.284-3.449-1.247-4.733 0.082-1.254 1.299-1.254 3.354 0 4.653l26.792 26.823c-2.056 4.196-0.88 9.262 2.816 12.123l-19.334 61.282c-38.209-14.075-57.773-56.458-43.698-94.666s56.458-57.773 94.667-43.698c38.209 14.075 57.773 56.459 43.698 94.667-6.877 18.667-21.005 33.764-39.176 41.86l-2.089-9.84c-0.382-1.809-2.16-2.965-3.968-2.581-0.57 0.122-1.1 0.39-1.536 0.778l-20.144 17.984c-1.382 1.229-1.505 3.345-0.274 4.727 0.4 0.449 0.913 0.782 1.487 0.965l25.718 8.208c1.76 0.565 3.645-0.402 4.21-2.163 0.179-0.556 0.209-1.148 0.088-1.72l-2.053-9.655c29.738-12.537 49.045-41.696 48.976-73.968zM83.959 76.984c1.848 0 3.348 1.499 3.348 3.348 0 1.85-1.5 3.348-3.348 3.348-1.85 0-3.348-1.498-3.348-3.348 0-1.848 1.498-3.348 3.348-3.348zM94.986 155.020l11.466-10.228 3.165 14.912-14.631-4.683z"></path>
<path fill="#4d5ae5" style="fill: var(--color2, #4d5ae5)" d="M80.611 16.722v6.696c0 1.849 1.498 3.348 3.348 3.348 1.848 0 3.348-1.498 3.348-3.348v-6.696c0-1.848-1.5-3.348-3.348-3.348-1.85 0-3.348 1.5-3.348 3.348z"></path>
<path fill="#4d5ae5" style="fill: var(--color2, #4d5ae5)" d="M20.349 76.984c-1.849 0-3.348 1.5-3.348 3.348 0 1.85 1.498 3.348 3.348 3.348h6.696c1.85 0 3.348-1.498 3.348-3.348 0-1.848-1.498-3.348-3.348-3.348h-6.696z"></path>
<path fill="#4d5ae5" style="fill: var(--color2, #4d5ae5)" d="M147.567 83.679c1.85 0 3.348-1.498 3.348-3.348 0-1.848-1.498-3.348-3.348-3.348h-6.696c-1.848 0-3.348 1.5-3.348 3.348 0 1.85 1.5 3.348 3.348 3.348h6.696z"></path>
</symbol>
<symbol id="icon-diagram-1" viewBox="0 0 168 168">
<path fill="#4d5ae5" style="fill: var(--color1, #4d5ae5)" d="M78.359 78.564h5.597v25.187h-5.597v-25.187z"></path>
<path fill="#4d5ae5" style="fill: var(--color1, #4d5ae5)" d="M100.747 89.758h5.597v13.993h-5.597v-13.993z"></path>
<path fill="#4d5ae5" style="fill: var(--color1, #4d5ae5)" d="M55.971 98.154h5.597v5.597h-5.597v-5.597z"></path>
<path fill="#4d5ae5" style="fill: var(--color1, #4d5ae5)" d="M39.179 95.355h5.597v8.396h-5.597v-8.396z"></path>
<path fill="#2e2f42" style="fill: var(--color2, #2e2f42)" d="M8.396 148.527h134.33c4.637 0 8.396-3.759 8.396-8.396v-11.194c0-4.637-3.759-8.396-8.396-8.396h-2.799v-69.79l15.896-15.059c3.689 1.819 8.155 0.714 10.57-2.618 2.416-3.331 2.077-7.919-0.801-10.859s-7.455-3.379-10.84-1.039c-3.383 2.342-4.586 6.782-2.848 10.511l-11.977 11.354v-6.457c0-4.637-3.759-8.396-8.396-8.396h-111.941c-4.636 0-8.396 3.759-8.396 8.396v83.956h-2.799c-4.636 0-8.396 3.759-8.396 8.396v11.194c0 4.637 3.759 8.396 8.396 8.396zM159.516 25.392c1.545 0 2.799 1.253 2.799 2.799s-1.253 2.799-2.799 2.799c-1.546 0-2.799-1.253-2.799-2.799s1.253-2.799 2.799-2.799zM16.791 36.586c0-1.545 1.253-2.799 2.799-2.799h111.941c1.545 0 2.799 1.253 2.799 2.799v11.753l-5.597 5.319v-11.474c0-1.545-1.253-2.799-2.799-2.799h-100.747c-1.545 0-2.799 1.253-2.799 2.799v69.963c0 1.546 1.253 2.799 2.799 2.799h100.747c1.545 0 2.799-1.253 2.799-2.799v-50.79l5.597-5.303v64.489h-117.538v-83.956zM41.978 72.967c-3.786-0.011-7.111 2.512-8.118 6.161s0.552 7.521 3.808 9.453c3.255 1.932 7.402 1.447 10.123-1.186l9.728 4.881c1.13 0.566 2.501 0.301 3.341-0.644l20.679-23.264 20.328 15.232c1.090 0.817 2.613 0.73 3.602-0.206l17.667-16.735v42.689h-95.15v-64.366h95.15v13.967l-19.8 18.751-20.498-15.367c-1.164-0.872-2.803-0.708-3.77 0.378l-20.963 23.587-7.837-3.919c0.057-0.336 0.093-0.675 0.107-1.015 0-4.636-3.759-8.396-8.396-8.396zM44.776 81.363c0 1.546-1.253 2.799-2.799 2.799s-2.799-1.253-2.799-2.799c0-1.545 1.253-2.799 2.799-2.799s2.799 1.253 2.799 2.799zM61.568 126.139h27.985v2.799c0 1.545-1.253 2.799-2.799 2.799h-22.388c-1.546 0-2.799-1.253-2.799-2.799v-2.799zM5.597 128.938c0-1.546 1.253-2.799 2.799-2.799h47.575v2.799c0 4.637 3.759 8.396 8.396 8.396h22.388c4.636 0 8.396-3.759 8.396-8.396v-2.799h47.575c1.546 0 2.799 1.253 2.799 2.799v11.194c0 1.546-1.253 2.799-2.799 2.799h-134.33c-1.545 0-2.799-1.253-2.799-2.799v-11.194z"></path>
</symbol>
<symbol id="icon-astronaut-1" viewBox="0 0 168 168">
<path fill="#4d5ae5" style="fill: var(--color1, #4d5ae5)" d="M167.864 23.751c-0.33-1.011-1.204-1.75-2.26-1.904l-10.030-1.459-4.488-9.089c-0.941-1.915-4.080-1.915-5.020 0l-4.488 9.089-10.030 1.459c-1.056 0.154-1.929 0.891-2.262 1.904-0.328 1.014-0.056 2.128 0.708 2.87l7.261 7.076-1.714 9.99c-0.179 1.050 0.252 2.111 1.112 2.739 0.871 0.633 2.008 0.711 2.951 0.213l8.971-4.718 8.971 4.718c0.409 0.216 0.86 0.322 1.305 0.322 0.58 0 1.159-0.179 1.647-0.535 0.862-0.627 1.294-1.689 1.112-2.739l-1.713-9.99 7.26-7.076c0.76-0.745 1.035-1.857 0.707-2.87zM154.934 30.718c-0.658 0.641-0.96 1.571-0.804 2.478l1.002 5.849-5.253-2.761c-0.409-0.216-0.857-0.322-1.305-0.322s-0.893 0.106-1.305 0.322l-5.253 2.761 1.002-5.849c0.157-0.907-0.146-1.834-0.804-2.478l-4.253-4.144 5.874-0.854c0.913-0.132 1.7-0.705 2.109-1.532l2.626-5.32 2.626 5.32c0.409 0.826 1.196 1.4 2.109 1.532l5.874 0.854-4.248 4.144z"></path>
<path fill="#4d5ae5" style="fill: var(--color1, #4d5ae5)" d="M137.201 107.741h-5.6v5.6h5.6v-5.6z"></path>
<path fill="#4d5ae5" style="fill: var(--color1, #4d5ae5)" d="M137.201 118.942h-5.6v5.6h5.6v-5.6z"></path>
<path fill="#4d5ae5" style="fill: var(--color1, #4d5ae5)" d="M142.801 113.342h-5.6v5.6h5.6v-5.6z"></path>
<path fill="#4d5ae5" style="fill: var(--color1, #4d5ae5)" d="M131.601 113.342h-5.6v5.6h5.6v-5.6z"></path>
<path fill="#4d5ae5" style="fill: var(--color1, #4d5ae5)" d="M117.6 138.542h-5.6v5.6h5.6v-5.6z"></path>
<path fill="#4d5ae5" style="fill: var(--color1, #4d5ae5)" d="M117.6 149.742h-5.6v5.6h5.6v-5.6z"></path>
<path fill="#4d5ae5" style="fill: var(--color1, #4d5ae5)" d="M123.201 144.142h-5.6v5.6h5.6v-5.6z"></path>
<path fill="#4d5ae5" style="fill: var(--color1, #4d5ae5)" d="M112 144.142h-5.6v5.6h5.6v-5.6z"></path>
<path fill="#4d5ae5" style="fill: var(--color1, #4d5ae5)" d="M84 127.342h-5.6v5.6h5.6v-5.6z"></path>
<path fill="#4d5ae5" style="fill: var(--color1, #4d5ae5)" d="M84 138.542h-5.6v5.6h5.6v-5.6z"></path>
<path fill="#4d5ae5" style="fill: var(--color1, #4d5ae5)" d="M89.6 132.942h-5.6v5.6h5.6v-5.6z"></path>
<path fill="#4d5ae5" style="fill: var(--color1, #4d5ae5)" d="M78.4 132.942h-5.6v5.6h5.6v-5.6z"></path>
<path fill="#4d5ae5" style="fill: var(--color1, #4d5ae5)" d="M30.799 32.14h-5.6v5.6h5.6v-5.6z"></path>
<path fill="#4d5ae5" style="fill: var(--color1, #4d5ae5)" d="M30.799 43.341h-5.6v5.6h5.6v-5.6z"></path>
<path fill="#4d5ae5" style="fill: var(--color1, #4d5ae5)" d="M36.399 37.741h-5.6v5.6h5.6v-5.6z"></path>
<path fill="#4d5ae5" style="fill: var(--color1, #4d5ae5)" d="M25.199 37.741h-5.6v5.6h5.6v-5.6z"></path>
<path fill="#2e2f42" style="fill: var(--color2, #2e2f42)" d="M129.752 74.337c-1.509-2.036-3.724-3.346-6.238-3.699-2.526-0.358-5.018 0.305-7.034 1.848l-6.575 5.040-9.963 7.44-7.129-2.839c12.712-5.704 21.597-18.419 21.597-33.18 0-20.071-16.394-36.401-36.546-36.401s-36.546 16.33-36.546 36.401c0 7.275 2.175 14.039 5.88 19.732l-14.51-0.126c-0.008 0-0.017 0-0.025 0-0.045 0-0.081 0.022-0.123 0.025-0.277 0.011-0.549 0.067-0.815 0.162-0.067 0.025-0.137 0.039-0.201 0.070-0.034 0.014-0.067 0.017-0.101 0.033l-16.974 8.381c-0.003 0-0.006 0-0.006 0.003l-9.94 4.78c-0.109 0.048-0.221 0.112-0.33 0.185-3.962 2.637-5.312 7.818-3.141 12.051 1.156 2.251 3.125 3.909 5.544 4.668 0.933 0.291 1.884 0.434 2.831 0.434 1.521 0 3.027-0.372 4.407-1.109l7.286-3.875 11.886-6.138 7.123-0.042-28.569 28.432c-0.003 0.003-0.006 0.003-0.009 0.006l-7.028 7c-1.66 1.652-2.573 3.844-2.573 6.183 0 2.335 0.913 4.533 2.573 6.188 1.705 1.697 3.948 2.548 6.191 2.548 2.246 0 4.485-0.851 6.196-2.548l6.899-6.871 9.139-6.824 4.729 4.71-9.249 9.209c-0.003 0.003-0.006 0.003-0.009 0.006l-7.028 7c-1.66 1.652-2.573 3.844-2.573 6.183 0 2.335 0.913 4.533 2.573 6.188 1.705 1.697 3.951 2.548 6.194 2.548s4.488-0.851 6.196-2.548l18.278-18.2c0.003-0.003 0.003-0.006 0.006-0.009l5.3-5.25-0.020-0.020c0.034-0.034 0.081-0.045 0.115-0.081l27.121-29.705 18.223 2.593c0.132 0.020 0.263 0.028 0.395 0.028 0.339 0 0.666-0.081 0.983-0.202 0.092-0.033 0.174-0.078 0.26-0.123 0.101-0.050 0.207-0.078 0.303-0.143l16.87-11.2c0.062-0.042 0.095-0.109 0.154-0.154 0.067-0.053 0.151-0.075 0.213-0.134l6.675-6.252c3.473-3.255 3.952-8.586 1.113-12.399zM11.185 93.293c-0.91 0.487-1.943 0.585-2.931 0.272-0.98-0.305-1.775-0.975-2.24-1.879-0.846-1.646-0.356-3.651 1.125-4.735l6.897-3.318 2.358 6.891-5.208 2.769zM29.544 83.698l-8.128 4.2-2.304-6.737 10.64-5.253-0.208 7.79zM108.816 48.94c0 4.822-1.151 9.369-3.144 13.437l-21.952-9.971c-0.23-3.010-1.792-5.645-4.138-7.286l7.686-25.517c12.483 3.971 21.549 15.616 21.549 29.336zM46.925 48.94c0-16.982 13.883-30.8 30.946-30.8 1.327 0 2.627 0.112 3.912 0.274l-7.518 24.957c-0.101-0.003-0.196-0.031-0.3-0.031-5.421 0-9.831 4.396-9.831 9.8s4.41 9.8 9.831 9.8c3.646 0 6.796-2.013 8.495-4.959l20.278 9.212c-5.642 7.594-14.672 12.547-24.867 12.547-17.063 0-30.946-13.818-30.946-30.801zM78.195 53.141c0 2.316-1.899 4.2-4.231 4.2s-4.231-1.884-4.231-4.2c0-2.316 1.899-4.2 4.231-4.2s4.231 1.884 4.231 4.2zM12.94 132.018c-1.24 1.229-3.248 1.227-4.485 0.003-0.597-0.596-0.924-1.383-0.924-2.22 0-0.834 0.327-1.621 0.924-2.212l5.051-5.032 4.469 4.449-5.034 5.012zM29.813 151.618c-1.24 1.229-3.251 1.232-4.488 0.003-0.597-0.596-0.924-1.383-0.924-2.22 0-0.834 0.327-1.621 0.924-2.212l5.054-5.034 4.472 4.449-5.037 5.015zM48.092 133.407c-0.003 0.003-0.006 0.003-0.009 0.006l-9.265 9.24-4.472-4.449 9.257-9.215c0 0 0 0 0-0.003 0.003-0.003 0.006-0.003 0.009-0.006 0.21-0.21 0.342-0.462 0.47-0.711 0.036-0.073 0.106-0.135 0.137-0.21 0.087-0.216 0.101-0.448 0.134-0.675 0.017-0.129 0.073-0.249 0.073-0.381 0-0.188-0.067-0.369-0.106-0.554-0.034-0.168-0.034-0.339-0.098-0.501-0.106-0.263-0.288-0.496-0.479-0.723-0.053-0.062-0.073-0.14-0.132-0.199 0 0 0 0-0.003 0-0.003-0.003-0.003-0.009-0.006-0.011l-8.437-8.4c-0.090-0.090-0.204-0.126-0.305-0.202-0.148-0.115-0.291-0.221-0.456-0.302-0.159-0.078-0.322-0.126-0.49-0.171-0.179-0.051-0.353-0.090-0.54-0.104-0.171-0.011-0.33 0.006-0.501 0.025-0.188 0.022-0.364 0.048-0.546 0.106-0.176 0.056-0.333 0.143-0.495 0.235-0.104 0.059-0.221 0.078-0.319 0.151l-9.31 6.95-4.729-4.71 12.595-12.527 22.893 22.515-4.87 4.824zM83.891 96.569c-0.081-0.011-0.157 0.020-0.238 0.014-0.204-0.011-0.4 0.003-0.605 0.036-0.159 0.028-0.311 0.059-0.462 0.112-0.179 0.062-0.342 0.146-0.507 0.246-0.157 0.095-0.3 0.196-0.437 0.322-0.067 0.059-0.148 0.087-0.21 0.154l-24.666 27.015-22.722-22.347 14.874-14.795c1.095-1.092 1.1-2.864 0.008-3.962-0.552-0.552-1.277-0.823-2.002-0.82v-0.003l-11.648 0.070 0.146-8.439 16.296 0.14c6.642 6.793 15.904 11.029 26.152 11.029 2.296 0 4.536-0.238 6.717-0.644 0.21 0.168 0.417 0.339 0.68 0.445l12.651 5.040 0.801 3.982 0.935 4.648-15.764-2.243zM105.107 97.505l-1.644-8.179 7.594-5.67 4.97 6.597-10.92 7.252zM124.813 82.642l-4.399 4.122-4.889-6.491 4.365-3.346c0.815-0.627 1.842-0.882 2.85-0.75 1.014 0.143 1.91 0.672 2.52 1.492 1.137 1.532 0.944 3.668-0.448 4.973z"></path>
<path fill="#2e2f42" style="fill: var(--color2, #2e2f42)" d="M71.411 97.356l-11.25-11.2c-1.089-1.089-2.859-1.089-3.951 0l-11.248 11.2c-0.526 0.529-0.823 1.24-0.823 1.985s0.294 1.459 0.823 1.985l11.248 11.2c0.546 0.543 1.263 0.815 1.977 0.815s1.431-0.272 1.974-0.815l11.25-11.2c0.526-0.526 0.826-1.24 0.826-1.985s-0.297-1.459-0.826-1.985zM58.186 106.591l-7.28-7.249 7.28-7.249 7.283 7.249-7.283 7.249z"></path>
<path fill="#2e2f42" style="fill: var(--color2, #2e2f42)" d="M90.112 26.621l-1.353 5.438c0.372 0.092 9.123 2.372 9.123 11.281h5.6c-0-10.59-8.745-15.569-13.37-16.719z"></path>
<path fill="#2e2f42" style="fill: var(--color2, #2e2f42)" d="M103.483 48.94h-5.6v5.6h5.6v-5.6z"></path>
</symbol>


<symbol id="icon-company" viewBox="0 0 312 168">
<path d="M150.341 17.804h-0.41c-0.63-0.038-1.26-0.053-1.89-0.069v0h-1.366c-1.192 0-2.406 0.031-3.613 0.092-0.091-0.007-0.182-0.007-0.273 0-10.933 0.619-21.645 3.352-31.548 8.048l-1.298 0.626v66.423l3.036-1.030c2.664-0.916 5.502-1.739 8.439-2.502 7.939-2.038 16.092-3.121 24.286-3.227v8.727c-1.085 0.008-2.14 0.038-3.195 0.092h-0.251c-6.306 0.346-12.563 1.306-18.685 2.868-7.752 1.941-15.231 4.855-22.259 8.674v-85.19c7.299-4.257 15.161-7.455 23.352-9.498 7.191-1.857 14.584-2.81 22.009-2.838h1.282c1.533 0.038 3.028 0.107 4.432 0.214 3.699 0.26 7.368 0.844 10.966 1.747v8.59c-3.494-0.814-7.047-1.35-10.625-1.602-0.073-0.006-0.145-0.012-0.218-0.019-0.74-0.063-1.482-0.126-2.173-0.126zM165.458 26.584c1.905 0.145 3.878 0.214 5.874 0.214 7.805-0.029 15.577-1.025 23.139-2.968 7.749-1.948 15.224-4.865 22.252-8.682v83.672c-7.303 4.255-15.167 7.452-23.36 9.498-7.192 1.85-14.584 2.8-22.009 2.831-5.625 0.045-11.234-0.616-16.696-1.968v-84.214c1.29 0.297 2.618 0.572 3.969 0.801 2.216 0.374 4.554 0.648 6.83 0.816zM208.041 27.233l-3.036 1.022c-2.793 0.938-5.608 1.778-8.439 2.525-8.242 2.118-16.712 3.204-25.219 3.235-1.981 0-3.802-0.053-5.563-0.168l-2.421-0.16v68.331l2.079 0.183c1.928 0.168 3.916 0.252 5.92 0.252 6.7-0.028 13.372-0.892 19.861-2.571 5.343-1.34 10.542-3.208 15.52-5.577l1.298-0.626v-66.446z"></path>
<path d="M107.211 135.637c-0.436-0.453-0.962-0.808-1.544-1.043s-1.206-0.345-1.833-0.322c-0.668-0.009-1.331 0.115-1.95 0.366-0.568 0.226-1.084 0.566-1.518 0.999-0.428 0.434-0.762 0.954-0.979 1.526-0.238 0.599-0.357 1.239-0.349 1.884v11.382c-0.027 0.802 0.126 1.6 0.448 2.334 0.269 0.583 0.656 1.103 1.138 1.526 0.455 0.383 0.989 0.659 1.564 0.809 0.553 0.155 1.125 0.235 1.7 0.236 0.634 0.006 1.261-0.129 1.837-0.397 0.569-0.249 1.084-0.607 1.518-1.053 0.422-0.442 0.76-0.959 0.994-1.526 0.243-0.574 0.367-1.192 0.365-1.816v-1.274h-2.975v1.015c0.009 0.346-0.050 0.691-0.175 1.015-0.097 0.242-0.244 0.461-0.433 0.641-0.184 0.149-0.395 0.26-0.622 0.328-0.201 0.067-0.411 0.103-0.622 0.107-0.266 0.031-0.535-0.009-0.78-0.116s-0.458-0.277-0.617-0.494c-0.281-0.458-0.418-0.989-0.395-1.526v-10.612c-0.019-0.588 0.106-1.172 0.364-1.701 0.155-0.24 0.373-0.432 0.631-0.554s0.544-0.168 0.827-0.133c0.256-0.009 0.511 0.044 0.743 0.156s0.432 0.278 0.586 0.485c0.333 0.437 0.507 0.976 0.493 1.526v0.984h2.945v-1.159c0.006-0.681-0.118-1.357-0.365-1.991-0.22-0.596-0.558-1.142-0.994-1.602z"></path>
<path d="M124.887 135.507c-0.949-0.801-2.146-1.243-3.385-1.251-0.606 0.002-1.207 0.111-1.776 0.32-0.578 0.207-1.111 0.523-1.571 0.931-0.493 0.443-0.886 0.987-1.154 1.595-0.3 0.695-0.447 1.447-0.433 2.205v10.917c-0.020 0.768 0.127 1.531 0.433 2.235 0.269 0.587 0.663 1.108 1.154 1.525 0.455 0.422 0.989 0.749 1.571 0.962 0.569 0.209 1.17 0.318 1.776 0.32 0.606-0.001 1.207-0.11 1.776-0.32 0.592-0.215 1.138-0.542 1.609-0.962 0.475-0.426 0.857-0.945 1.123-1.525 0.305-0.704 0.453-1.467 0.433-2.235v-10.917c0.015-0.757-0.133-1.51-0.433-2.205-0.265-0.601-0.647-1.144-1.123-1.595zM123.498 150.223c0.025 0.291-0.015 0.584-0.118 0.857s-0.265 0.52-0.474 0.722c-0.393 0.329-0.889 0.51-1.4 0.51s-1.007-0.181-1.4-0.51c-0.21-0.202-0.372-0.449-0.474-0.722s-0.143-0.566-0.118-0.857v-10.917c-0.025-0.291 0.015-0.584 0.118-0.857s0.264-0.52 0.474-0.722c0.393-0.329 0.888-0.51 1.4-0.51s1.007 0.181 1.4 0.51c0.21 0.202 0.372 0.449 0.474 0.722s0.143 0.566 0.118 0.857v10.917z"></path>
<path d="M148.102 155.098v-20.666h-2.861l-3.757 10.94h-0.053l-3.787-10.94h-2.831v20.666h2.952v-12.572h0.053l2.891 8.887h1.472l2.914-8.887h0.053v12.572h2.952z"></path>
<path d="M164.874 135.881c-0.455-0.51-1.028-0.898-1.67-1.129-0.691-0.225-1.414-0.333-2.14-0.32h-4.386v20.666h2.944v-8.071h1.518c0.919 0.042 1.833-0.153 2.656-0.565 0.67-0.372 1.228-0.917 1.617-1.579 0.34-0.55 0.57-1.162 0.675-1.8 0.116-0.778 0.169-1.564 0.159-2.35 0.029-0.992-0.068-1.984-0.288-2.952-0.197-0.715-0.57-1.369-1.085-1.9zM163.356 142.182c-0.013 0.374-0.106 0.741-0.273 1.076-0.168 0.318-0.434 0.572-0.759 0.725-0.436 0.195-0.912 0.284-1.389 0.26h-1.343v-7.026h1.518c0.457-0.022 0.913 0.067 1.328 0.259 0.305 0.175 0.546 0.442 0.691 0.763 0.161 0.363 0.249 0.755 0.258 1.152 0 0.435 0 0.893 0 1.373s0.030 0.977 0 1.419h-0.030z"></path>
<path d="M178.823 134.432h-2.414l-4.553 20.666h2.944l0.865-4.44h4.015l0.865 4.44h2.945l-4.667-20.666zM176.106 147.843l1.45-7.491h0.053l1.442 7.491h-2.945z"></path>
<path d="M197.849 146.882h-0.053l-4.447-12.45h-2.831v20.666h2.944v-12.427h0.061l4.5 12.427h2.77v-20.666h-2.944v12.45z"></path>
<path d="M215.843 134.432l-2.368 8.216h-0.061l-2.368-8.216h-3.119l4.045 11.931v8.735h2.945v-8.735l4.045-11.931h-3.119z"></path>
<path d="M99 160.934h1.419v3.982h0.964v-3.982h1.412v-0.816h-3.795v0.816z"></path>
<path d="M110.93 160.117l-1.859 4.799h1.025l0.395-1.091h1.912l0.41 1.091h1.047l-1.905-4.799h-1.025zM110.778 163.016l0.653-1.777 0.652 1.777h-1.305z"></path>
<path d="M122.724 163.146h1.108v0.618c-0.324 0.26-0.725 0.402-1.138 0.404-0.193 0.011-0.387-0.025-0.564-0.105s-0.332-0.201-0.453-0.353c-0.254-0.365-0.38-0.806-0.357-1.251 0-1.068 0.463-1.602 1.381-1.602 0.242-0.024 0.484 0.040 0.683 0.179s0.342 0.347 0.402 0.583l0.949-0.183c-0.205-0.938-0.88-1.411-2.034-1.411-0.617-0.017-1.217 0.205-1.677 0.618-0.242 0.239-0.429 0.527-0.548 0.846s-0.168 0.66-0.143 1c-0.028 0.657 0.191 1.3 0.615 1.801 0.235 0.242 0.52 0.431 0.834 0.552s0.651 0.172 0.987 0.15c0.751 0.021 1.48-0.253 2.034-0.763v-1.892h-2.080v0.809z"></path>
<path d="M134.768 160.117h-0.971v4.799h3.362v-0.816h-2.39v-3.982z"></path>
<path d="M144.952 160.117h-0.971v4.799h0.971v-4.799z"></path>
<path d="M154.909 163.321l-1.966-3.204h-0.941v4.799h0.903v-3.135l1.928 3.135h0.964v-4.799h-0.888v3.204z"></path>
<path d="M163.91 162.803h2.391v-0.816h-2.391v-1.053h2.573v-0.816h-3.544v4.799h3.643v-0.816h-2.671v-1.297z"></path>
<path d="M185.737 162.009h-1.89v-1.892h-0.964v4.799h0.964v-2.098h1.89v2.098h0.964v-4.799h-0.964v1.892z"></path>
<path d="M194.791 162.803h2.398v-0.816h-2.398v-1.053h2.58v-0.816h-3.544v4.799h3.635v-0.816h-2.671v-1.297z"></path>
<path d="M207.070 162.803c0.835-0.13 1.26-0.572 1.26-1.335 0.024-0.204-0.007-0.411-0.089-0.599s-0.214-0.35-0.381-0.469c-0.434-0.218-0.919-0.316-1.404-0.282h-2.034v4.798h0.964v-2.006h0.19c0.206-0.013 0.411 0.024 0.599 0.107 0.141 0.087 0.258 0.207 0.342 0.351l1.047 1.526h1.154l-0.584-0.938c-0.258-0.463-0.622-0.858-1.062-1.152zM206.098 162.139h-0.713v-1.205h0.759c0.331-0.027 0.663 0.012 0.979 0.114 0.070 0.062 0.125 0.139 0.162 0.226s0.053 0.18 0.049 0.274c-0.004 0.094-0.030 0.185-0.074 0.268s-0.107 0.154-0.182 0.209c-0.317 0.097-0.649 0.136-0.979 0.115z"></path>
<path d="M216.329 162.803h2.39v-0.816h-2.39v-1.053h2.58v-0.816h-3.552v4.799h3.643v-0.816h-2.671v-1.297z"></path>
</symbol>
<symbol id="icon-yago" viewBox="0 0 312 168">
<path d="M114 21l21.023 20.029-39.023-0.023v97.177h102v-37.155l21 20.007v-100.034h-105zM197.077 98.677l-59.609-56.791h59.609v56.791zM178.569 123.968h-66.429v-65.356h4.696v60.931h61.733v4.426zM125.388 156.183l-2.476-5.090h-2.043l3.589 6.738v3.926h1.853v-3.926l3.589-6.738h-2.036l-2.476 5.090zM134.514 151.093h0.44l4.028 10.664h-1.933l-0.863-2.498h-4.128l-0.861 2.498h-1.926l4.014-10.664h1.231zM132.559 157.802h3.122l-1.563-4.524-1.559 4.524zM145.446 156.035c-0.080-0.102-0.158-0.202-0.232-0.298-0.274-0.361-0.486-0.71-0.637-1.047-0.151-0.342-0.227-0.694-0.227-1.055 0-0.556 0.115-1.035 0.344-1.436s0.554-0.708 0.974-0.923c0.42-0.22 0.911-0.33 1.472-0.33 0.542 0 1.008 0.11 1.399 0.33 0.395 0.215 0.698 0.5 0.908 0.857 0.215 0.356 0.322 0.747 0.322 1.172 0 0.337-0.061 0.645-0.183 0.923s-0.29 0.532-0.505 0.762c-0.215 0.23-0.464 0.447-0.747 0.652l-0.741 0.539 2.112 2.492c0.070-0.137 0.133-0.281 0.189-0.431 0.181-0.469 0.271-0.989 0.271-1.56h1.523c0 0.518-0.051 1.008-0.154 1.472-0.097 0.464-0.256 0.893-0.476 1.289-0.089 0.164-0.19 0.321-0.302 0.471l1.562 1.844h-2.043l-0.62-0.729c-0.335 0.255-0.7 0.454-1.094 0.597-0.517 0.185-1.069 0.278-1.655 0.278-0.708 0-1.321-0.13-1.838-0.388s-0.918-0.615-1.201-1.070c-0.278-0.454-0.418-0.974-0.418-1.56 0-0.435 0.090-0.815 0.271-1.143 0.181-0.332 0.428-0.64 0.74-0.923 0.289-0.262 0.617-0.524 0.986-0.785zM146.321 157.107l-0.221 0.16c-0.259 0.21-0.452 0.413-0.579 0.608-0.122 0.19-0.202 0.366-0.242 0.527s-0.059 0.303-0.059 0.425c0 0.312 0.066 0.596 0.198 0.85 0.137 0.254 0.335 0.456 0.593 0.608 0.264 0.146 0.584 0.22 0.959 0.22 0.405 0 0.798-0.090 1.179-0.271 0.191-0.093 0.372-0.205 0.543-0.336l-2.373-2.791zM146.743 155.159l0.654-0.44c0.308-0.205 0.527-0.405 0.659-0.601 0.132-0.2 0.198-0.449 0.198-0.747 0-0.254-0.098-0.488-0.293-0.703s-0.471-0.322-0.828-0.322c-0.249 0-0.459 0.059-0.63 0.176-0.171 0.112-0.3 0.264-0.388 0.454-0.083 0.185-0.125 0.393-0.125 0.622 0 0.22 0.056 0.447 0.168 0.681 0.113 0.23 0.266 0.471 0.461 0.725 0.040 0.051 0.081 0.102 0.122 0.155zM165.4 158.285h-1.831c-0.054 0.464-0.166 0.857-0.337 1.179-0.166 0.317-0.412 0.559-0.739 0.725-0.323 0.166-0.745 0.249-1.267 0.249-0.43 0-0.798-0.085-1.106-0.256s-0.561-0.412-0.762-0.725c-0.195-0.312-0.342-0.686-0.439-1.121-0.093-0.44-0.139-0.928-0.139-1.465v-0.901c0-0.566 0.051-1.069 0.154-1.509 0.107-0.444 0.266-0.818 0.476-1.121s0.471-0.532 0.784-0.688c0.312-0.156 0.679-0.235 1.099-0.235 0.513 0 0.928 0.088 1.245 0.264 0.317 0.171 0.557 0.42 0.718 0.747 0.166 0.327 0.273 0.72 0.322 1.179h1.831c-0.073-0.713-0.273-1.345-0.601-1.897-0.322-0.552-0.776-0.984-1.362-1.296s-1.303-0.469-2.153-0.469c-0.669 0-1.272 0.117-1.809 0.352-0.532 0.234-0.988 0.574-1.369 1.018-0.381 0.439-0.674 0.969-0.879 1.589-0.2 0.62-0.3 1.314-0.3 2.080v0.886c0 0.767 0.098 1.46 0.293 2.080 0.2 0.62 0.488 1.15 0.864 1.589 0.376 0.434 0.828 0.771 1.355 1.011 0.527 0.234 1.121 0.352 1.78 0.352 0.86 0 1.589-0.156 2.19-0.469s1.067-0.74 1.399-1.282c0.332-0.547 0.527-1.17 0.586-1.868zM175.573 156.718v-0.586c0-0.806-0.107-1.526-0.322-2.161-0.21-0.64-0.51-1.184-0.901-1.633-0.391-0.454-0.857-0.798-1.399-1.033-0.542-0.239-1.143-0.359-1.802-0.359-0.654 0-1.252 0.12-1.794 0.359-0.537 0.235-1.004 0.579-1.399 1.033-0.391 0.449-0.694 0.994-0.908 1.633-0.215 0.635-0.322 1.355-0.322 2.161v0.586c0 0.806 0.107 1.529 0.322 2.168 0.22 0.64 0.527 1.184 0.923 1.633s0.862 0.794 1.399 1.033c0.542 0.234 1.14 0.352 1.795 0.352 0.659 0 1.26-0.117 1.802-0.352 0.542-0.239 1.006-0.584 1.391-1.033 0.391-0.449 0.691-0.994 0.901-1.633s0.315-1.362 0.315-2.168zM173.735 156.117v0.601c0 0.596-0.059 1.123-0.176 1.582-0.112 0.459-0.278 0.847-0.498 1.165-0.22 0.312-0.488 0.549-0.806 0.71-0.317 0.156-0.681 0.234-1.091 0.234-0.405 0-0.767-0.078-1.084-0.234-0.317-0.161-0.591-0.398-0.82-0.71-0.224-0.317-0.395-0.706-0.513-1.165s-0.176-0.986-0.176-1.582v-0.601c0-0.596 0.059-1.121 0.176-1.575 0.117-0.459 0.286-0.842 0.505-1.15 0.224-0.312 0.496-0.547 0.813-0.703 0.317-0.161 0.679-0.242 1.084-0.242s0.769 0.081 1.091 0.242c0.322 0.156 0.593 0.391 0.813 0.703 0.224 0.308 0.393 0.691 0.505 1.15 0.117 0.454 0.176 0.979 0.176 1.575z"></path>
</symbol>
<symbol id="icon-brand" viewBox="0 0 312 168">
<path d="M80.376 133.119c0.736 0.82 1.129 1.848 1.108 2.903 0.038 0.688-0.097 1.375-0.395 2.009s-0.749 1.201-1.323 1.658c-1.431 0.973-3.203 1.448-4.992 1.339h-8.775v-18.397h8.595c1.697-0.101 3.38 0.331 4.762 1.222 0.555 0.418 0.995 0.947 1.284 1.544s0.42 1.247 0.383 1.898c0.050 1.015-0.304 2.013-0.998 2.813-0.667 0.731-1.588 1.238-2.615 1.438 1.164 0.191 2.215 0.748 2.965 1.573zM70.083 130.342h3.674c0.835 0.056 1.664-0.161 2.336-0.611 0.276-0.225 0.491-0.504 0.627-0.816s0.192-0.647 0.161-0.981c0.026-0.333-0.031-0.667-0.165-0.978s-0.344-0.591-0.614-0.82c-0.692-0.463-1.547-0.683-2.406-0.62h-3.614v4.826zM76.452 137.397c0.295-0.23 0.526-0.519 0.677-0.843s0.216-0.676 0.191-1.026c0.022-0.355-0.046-0.71-0.2-1.037s-0.389-0.618-0.689-0.85c-0.718-0.48-1.603-0.715-2.496-0.665h-3.853v5.060h3.904c0.878 0.046 1.748-0.179 2.466-0.638z"></path>
<path d="M97.946 141.028l-4.782-7.19h-1.797v7.19h-4.113v-18.397h7.787c1.963-0.123 3.903 0.437 5.421 1.564 1.088 0.998 1.745 2.314 1.851 3.71s-0.345 2.78-1.272 3.903c-0.961 0.991-2.273 1.651-3.714 1.869l5.091 7.351h-4.472zM91.367 131.331h3.364c2.336 0 3.504-0.929 3.504-2.786 0.024-0.379-0.040-0.759-0.188-1.115s-0.376-0.68-0.671-0.953c-0.738-0.553-1.689-0.821-2.645-0.746h-3.404l0.040 5.599z"></path>
<path d="M120.428 137.326h-8.196l-1.448 3.703h-4.313l7.527-18.19h4.662l7.497 18.19h-4.313l-1.418-3.703zM119.33 134.539l-2.995-7.765-2.995 7.765h5.99z"></path>
<path d="M148.57 141.028h-4.083l-9.155-12.511v12.511h-4.073v-18.397h4.073l9.155 12.582v-12.582h4.083v18.397z"></path>
<path d="M171.871 136.625c-0.844 1.389-2.131 2.519-3.694 3.244-1.777 0.808-3.75 1.207-5.74 1.159h-7.268v-18.397h7.268c1.987-0.047 3.957 0.342 5.74 1.133 1.563 0.709 2.851 1.828 3.694 3.209 0.84 1.496 1.278 3.149 1.278 4.826s-0.438 3.33-1.278 4.826zM167.199 136.184c1.165-1.222 1.806-2.78 1.806-4.39s-0.641-3.168-1.806-4.39c-1.408-1.107-3.245-1.669-5.111-1.564h-2.835v11.908h2.835c1.866 0.105 3.703-0.457 5.111-1.564z"></path>
<path d="M122.984 20.3c0 0 52.701 17.912 51.583 43.832v43.84c0 0-52.661-17.921-51.563-43.84l-0.020-43.832z"></path>
<path d="M221.517 97.708c9.953-6.166 21.466-9.986 33.483-11.108v-13.724c-13.847 4.805-25.594 13.516-33.483 24.832z"></path>
<path d="M215.537 101.843c8.147-14.767 22.269-26.163 39.463-31.843v-39.544c0 0-75.053 25.515-73.466 62.426v62.418c0 0 3.344-1.142 8.606-3.28 0-1.995 0-4.008 0.24-6.031 1.553-17.136 10.602-33.015 25.157-44.146z"></path>
<path d="M208.399 125.031c0.395-4.329 1.274-8.611 2.626-12.78-9.063 9.613-14.552 21.541-15.693 34.107-0.11 1.186-0.17 2.373-0.2 3.595 4.263-1.843 9.224-4.143 14.436-6.848-1.33-5.945-1.723-12.030-1.168-18.074z"></path>
<path d="M211.384 125.256c-0.5 5.468-0.187 10.972 0.928 16.366 20.505-11.045 43.546-28.113 42.658-48.739v-1.798c-14.65 1.476-28.357 7.241-39.014 16.411-2.495 5.683-4.036 11.668-4.572 17.759z"></path>
</symbol>
<symbol id="icon-foster" viewBox="0 0 312 168">
<path d="M72.235 64.554h-0.009c-7.157 0-12.959 5.231-12.959 11.684v0.008c0 6.452 5.802 11.683 12.959 11.683h0.009c7.157 0 12.959-5.231 12.959-11.683v-0.008c0-6.452-5.802-11.684-12.959-11.684z"></path>
<path d="M167.884 60.819c-0.020-8.963-3.977-17.553-11.005-23.891s-16.555-9.908-26.495-9.928v0c-9.944 0.016-19.475 3.584-26.506 9.923s-10.991 14.931-11.012 23.896v49.423c0 0 75.011-7.532 75.019-49.415v-0.008z"></path>
<path d="M33 126.463c0.018 6.236 2.773 12.212 7.663 16.623s11.518 6.896 18.434 6.914c6.915-0.018 13.541-2.503 18.431-6.912s7.646-10.383 7.666-16.618v-34.389c0 0-52.194 5.245-52.194 34.381zM59.097 132.625c-1.352 0-2.673-0.361-3.797-1.039s-2-1.639-2.517-2.765-0.652-2.365-0.389-3.56c0.264-1.195 0.914-2.293 1.87-3.155s2.174-1.448 3.499-1.686c1.326-0.238 2.7-0.115 3.948 0.351s2.316 1.256 3.067 2.269c0.751 1.013 1.152 2.204 1.152 3.423 0.004 0.811-0.171 1.615-0.513 2.365s-0.845 1.432-1.48 2.007c-0.635 0.575-1.39 1.030-2.22 1.342s-1.722 0.471-2.621 0.471v-0.023z"></path>
<path d="M106.827 121.545v12.797h-2.637v-12.797h2.637zM111.924 127.012v2.057h-5.818v-2.057h5.818zM112.54 121.545v2.066h-6.434v-2.066h6.434zM124.581 127.645v0.607c0 0.973-0.132 1.846-0.396 2.619s-0.636 1.433-1.116 1.978c-0.48 0.539-1.054 0.952-1.723 1.239-0.662 0.287-1.397 0.43-2.206 0.43-0.803 0-1.538-0.143-2.206-0.43-0.662-0.287-1.236-0.7-1.723-1.239-0.486-0.545-0.864-1.204-1.134-1.978-0.264-0.773-0.396-1.646-0.396-2.619v-0.607c0-0.979 0.132-1.852 0.396-2.619 0.264-0.773 0.636-1.433 1.116-1.978 0.487-0.545 1.061-0.961 1.723-1.248 0.668-0.287 1.403-0.431 2.206-0.431 0.809 0 1.544 0.144 2.206 0.431 0.668 0.287 1.242 0.703 1.723 1.248 0.486 0.545 0.861 1.204 1.125 1.978 0.269 0.767 0.404 1.64 0.404 2.619zM121.918 128.251v-0.624c0-0.68-0.062-1.277-0.185-1.793s-0.305-0.949-0.545-1.301-0.533-0.615-0.879-0.791c-0.346-0.181-0.741-0.272-1.186-0.272s-0.841 0.091-1.186 0.272c-0.34 0.176-0.63 0.44-0.87 0.791-0.235 0.352-0.413 0.785-0.536 1.301s-0.185 1.113-0.185 1.793v0.624c0 0.674 0.062 1.271 0.185 1.793 0.123 0.516 0.305 0.952 0.545 1.31 0.24 0.352 0.533 0.618 0.879 0.8s0.741 0.273 1.186 0.273c0.445 0 0.841-0.091 1.186-0.273s0.636-0.448 0.87-0.8c0.235-0.357 0.413-0.794 0.536-1.31 0.123-0.521 0.185-1.119 0.185-1.793zM133.141 130.993c0-0.228-0.035-0.433-0.106-0.615-0.064-0.188-0.188-0.358-0.369-0.51-0.182-0.158-0.437-0.314-0.765-0.466s-0.753-0.311-1.274-0.475c-0.58-0.188-1.131-0.399-1.652-0.633-0.516-0.234-0.973-0.507-1.371-0.817-0.393-0.316-0.703-0.683-0.932-1.099-0.223-0.416-0.334-0.899-0.334-1.45 0-0.533 0.117-1.016 0.352-1.45 0.234-0.439 0.563-0.814 0.984-1.125 0.422-0.316 0.92-0.559 1.494-0.729 0.58-0.17 1.216-0.255 1.907-0.255 0.943 0 1.767 0.17 2.47 0.51s1.248 0.806 1.635 1.398c0.392 0.592 0.589 1.268 0.589 2.030h-2.619c0-0.375-0.079-0.703-0.237-0.984-0.152-0.287-0.387-0.513-0.703-0.677-0.311-0.164-0.703-0.246-1.178-0.246-0.457 0-0.838 0.070-1.142 0.211-0.305 0.135-0.533 0.319-0.685 0.554-0.152 0.228-0.229 0.486-0.229 0.773 0 0.217 0.053 0.413 0.158 0.589 0.111 0.176 0.275 0.34 0.492 0.492s0.483 0.296 0.8 0.431c0.316 0.135 0.683 0.266 1.099 0.395 0.697 0.211 1.31 0.448 1.837 0.712 0.533 0.264 0.979 0.559 1.336 0.888s0.627 0.7 0.809 1.116c0.181 0.416 0.272 0.888 0.272 1.415 0 0.556-0.109 1.054-0.325 1.494s-0.53 0.811-0.941 1.116c-0.41 0.304-0.899 0.536-1.468 0.694s-1.204 0.237-1.907 0.237c-0.633 0-1.257-0.082-1.872-0.246-0.615-0.17-1.175-0.425-1.679-0.765-0.498-0.34-0.896-0.773-1.195-1.301s-0.448-1.151-0.448-1.872h2.645c0 0.398 0.062 0.735 0.185 1.011s0.296 0.498 0.519 0.668c0.228 0.17 0.498 0.293 0.808 0.369 0.316 0.076 0.662 0.114 1.037 0.114 0.457 0 0.832-0.064 1.125-0.193 0.299-0.129 0.519-0.308 0.659-0.536 0.147-0.228 0.22-0.486 0.22-0.773zM143.293 121.545v12.797h-2.628v-12.797h2.628zM147.23 121.545v2.066h-10.441v-2.066h10.441zM157.32 132.285v2.057h-6.812v-2.057h6.812zM151.369 121.545v12.797h-2.637v-12.797h2.637zM156.432 126.757v2.004h-5.924v-2.004h5.924zM157.311 121.545v2.066h-6.803v-2.066h6.803zM158.858 121.545h4.773c0.978 0 1.819 0.146 2.522 0.44 0.709 0.293 1.254 0.727 1.635 1.301s0.571 1.28 0.571 2.118c0 0.686-0.117 1.275-0.352 1.767-0.228 0.486-0.554 0.894-0.976 1.222-0.416 0.323-0.905 0.58-1.468 0.774l-0.835 0.439h-4.148l-0.018-2.057h3.085c0.463 0 0.847-0.082 1.151-0.246s0.533-0.393 0.685-0.686c0.158-0.293 0.237-0.633 0.237-1.019 0-0.41-0.076-0.765-0.228-1.063s-0.384-0.527-0.694-0.685-0.7-0.237-1.169-0.237h-2.136v10.731h-2.637v-12.797zM166.012 134.342l-2.918-5.704 2.786-0.018 2.953 5.599v0.123h-2.821zM179.855 129.78h-3.261v-2.057h3.261c0.504 0 0.914-0.082 1.23-0.246 0.316-0.17 0.548-0.404 0.694-0.703s0.22-0.636 0.22-1.011c0-0.381-0.073-0.736-0.22-1.063s-0.378-0.592-0.694-0.791-0.727-0.299-1.23-0.299h-2.347v10.731h-2.637v-12.797h4.984c1.002 0 1.86 0.182 2.575 0.545 0.721 0.357 1.271 0.852 1.652 1.485s0.571 1.356 0.571 2.171c0 0.826-0.19 1.541-0.571 2.144s-0.932 1.070-1.652 1.398c-0.715 0.328-1.574 0.492-2.575 0.492zM195.060 132.285v2.057h-6.812v-2.057h6.812zM189.11 121.545v12.797h-2.637v-12.797h2.637zM194.172 126.757v2.004h-5.924v-2.004h5.924zM195.051 121.545v2.066h-6.803v-2.066h6.803zM202.495 121.545v12.797h-2.628v-12.797h2.628zM206.433 121.545v2.066h-10.441v-2.066h10.441zM216.523 132.285v2.057h-6.812v-2.057h6.812zM210.573 121.545v12.797h-2.637v-12.797h2.637zM215.635 126.757v2.004h-5.924v-2.004h5.924zM216.514 121.545v2.066h-6.803v-2.066h6.803zM218.061 121.545h4.772c0.979 0 1.819 0.146 2.523 0.44 0.709 0.293 1.254 0.727 1.635 1.301s0.571 1.28 0.571 2.118c0 0.686-0.117 1.275-0.352 1.767-0.229 0.486-0.554 0.894-0.976 1.222-0.416 0.323-0.905 0.58-1.468 0.774l-0.835 0.439h-4.148l-0.017-2.057h3.085c0.463 0 0.847-0.082 1.151-0.246s0.533-0.393 0.685-0.686c0.158-0.293 0.237-0.633 0.237-1.019 0-0.41-0.076-0.765-0.229-1.063s-0.384-0.527-0.694-0.685c-0.311-0.158-0.7-0.237-1.169-0.237h-2.136v10.731h-2.637v-12.797zM225.215 134.342l-2.918-5.704 2.786-0.018 2.953 5.599v0.123h-2.821zM236.254 130.993c0-0.228-0.035-0.433-0.106-0.615-0.064-0.188-0.188-0.358-0.369-0.51-0.182-0.158-0.437-0.314-0.765-0.466s-0.753-0.311-1.274-0.475c-0.58-0.188-1.131-0.399-1.652-0.633-0.516-0.234-0.973-0.507-1.371-0.817-0.393-0.316-0.703-0.683-0.932-1.099-0.223-0.416-0.334-0.899-0.334-1.45 0-0.533 0.117-1.016 0.352-1.45 0.234-0.439 0.563-0.814 0.984-1.125 0.422-0.316 0.92-0.559 1.494-0.729 0.58-0.17 1.216-0.255 1.907-0.255 0.943 0 1.767 0.17 2.47 0.51s1.248 0.806 1.635 1.398c0.392 0.592 0.589 1.268 0.589 2.030h-2.619c0-0.375-0.079-0.703-0.237-0.984-0.152-0.287-0.387-0.513-0.703-0.677-0.311-0.164-0.703-0.246-1.178-0.246-0.457 0-0.838 0.070-1.142 0.211-0.305 0.135-0.533 0.319-0.685 0.554-0.152 0.228-0.229 0.486-0.229 0.773 0 0.217 0.053 0.413 0.158 0.589 0.111 0.176 0.275 0.34 0.492 0.492s0.483 0.296 0.8 0.431c0.316 0.135 0.683 0.266 1.099 0.395 0.697 0.211 1.31 0.448 1.837 0.712 0.533 0.264 0.979 0.559 1.336 0.888s0.627 0.7 0.809 1.116c0.181 0.416 0.272 0.888 0.272 1.415 0 0.556-0.109 1.054-0.325 1.494s-0.53 0.811-0.941 1.116c-0.41 0.304-0.899 0.536-1.468 0.694s-1.204 0.237-1.907 0.237c-0.633 0-1.257-0.082-1.872-0.246-0.615-0.17-1.175-0.425-1.679-0.765-0.498-0.34-0.896-0.773-1.195-1.301s-0.448-1.151-0.448-1.872h2.645c0 0.398 0.062 0.735 0.185 1.011s0.296 0.498 0.519 0.668c0.228 0.17 0.498 0.293 0.809 0.369 0.316 0.076 0.662 0.114 1.037 0.114 0.457 0 0.832-0.064 1.125-0.193 0.299-0.129 0.518-0.308 0.659-0.536 0.147-0.228 0.22-0.486 0.22-0.773z"></path>
</symbol>
<symbol id="icon-tagline" viewBox="0 0 312 168">
<path d="M160.588 82.33c-1.332-1.773-1.969-3.867-1.818-5.976v-8.664c0-2.656 0.603-4.674 1.808-6.055s3.275-2.068 6.21-2.062c2.758 0 4.716 0.588 5.873 1.763 1.263 1.499 1.877 3.333 1.736 5.183v2.036h-4.934v-2.062c0.018-0.675-0.030-1.35-0.143-2.018-0.071-0.457-0.319-0.88-0.705-1.199-0.507-0.344-1.145-0.511-1.788-0.467-0.676-0.043-1.346 0.132-1.879 0.493-0.43 0.354-0.716 0.817-0.817 1.322-0.142 0.707-0.206 1.424-0.194 2.142v10.515c-0.078 1.014 0.14 2.029 0.633 2.953 0.245 0.313 0.586 0.56 0.985 0.716s0.839 0.213 1.273 0.166c0.632 0.045 1.259-0.126 1.747-0.476 0.402-0.344 0.661-0.794 0.736-1.278 0.115-0.698 0.167-1.402 0.153-2.107v-2.133h4.934v1.948c0.139 1.928-0.461 3.842-1.706 5.447-1.134 1.287-3.064 1.93-5.904 1.93s-4.985-0.687-6.2-2.115z"></path>
<path d="M181.129 82.418c-1.246-1.348-1.869-3.314-1.869-5.914v-9.114c0-2.574 0.623-4.522 1.869-5.844s3.33-1.98 6.251-1.974c2.901 0 4.974 0.658 6.22 1.974 1.246 1.322 1.879 3.27 1.879 5.844v9.114c0 2.574-0.633 4.548-1.9 5.905s-3.33 2.036-6.2 2.036-4.995-0.687-6.251-2.027zM189.678 80.232c0.446-0.844 0.65-1.77 0.592-2.697v-11.159c0.057-0.909-0.143-1.817-0.582-2.644-0.25-0.319-0.599-0.571-1.007-0.727s-0.859-0.21-1.301-0.155c-0.443-0.053-0.895 0.001-1.304 0.157s-0.76 0.407-1.014 0.725c-0.449 0.825-0.653 1.734-0.592 2.644v11.211c-0.062 0.928 0.141 1.854 0.592 2.697 0.288 0.284 0.643 0.512 1.041 0.668s0.83 0.237 1.268 0.237 0.87-0.081 1.268-0.237c0.398-0.156 0.753-0.384 1.040-0.668v-0.053z"></path>
<path d="M201.413 59.838h5.312l3.994 16.816 4.086-16.816h5.168l0.521 24.272h-3.82l-0.408-16.868-3.943 16.868h-3.064l-4.086-16.93-0.378 16.93h-3.861l0.48-24.272z"></path>
<path d="M226.449 59.838h8.273c4.767 0 7.15 2.297 7.15 6.892 0 4.401-2.509 6.598-7.528 6.592h-2.819v10.787h-5.107l0.031-24.272zM233.517 70.211c0.505 0.055 1.017 0.015 1.502-0.117s0.931-0.354 1.307-0.65c0.586-0.82 0.844-1.782 0.735-2.741 0.027-0.74-0.055-1.481-0.245-2.203-0.073-0.242-0.201-0.468-0.376-0.666s-0.395-0.364-0.646-0.489c-0.709-0.293-1.492-0.427-2.278-0.388h-1.982v7.253h1.982z"></path>
<path d="M249.236 59.838h5.485l5.628 24.272h-4.76l-1.113-5.597h-4.892l-1.144 5.597h-4.831l5.628-24.272zM253.924 75.702l-1.91-10.188-1.91 10.188h3.82z"></path>
<path d="M264.894 59.838h3.575l6.844 13.846v-13.846h4.239v24.272h-3.401l-6.884-14.454v14.454h-4.382l0.010-24.272z"></path>
<path d="M289.48 74.855l-5.689-14.983h4.79l3.473 9.624 3.258-9.624h4.688l-5.618 14.983v9.254h-4.903v-9.254z"></path>
<path d="M168.474 94.721v1.269h-4.167v9.862h-1.747v-9.862h-4.188v-1.269h10.102z"></path>
<path d="M181.537 105.853h-1.348c-0.137 0.008-0.272-0.030-0.378-0.106-0.102-0.064-0.18-0.153-0.225-0.256l-1.205-2.644h-5.781l-1.205 2.644c-0.034 0.111-0.097 0.213-0.184 0.3-0.107 0.074-0.242 0.111-0.378 0.106h-1.348l5.107-11.131h1.777l5.168 11.087zM173.080 101.72h4.821l-2.043-4.53c-0.151-0.343-0.277-0.693-0.378-1.049-0.071 0.211-0.133 0.414-0.194 0.591l-0.184 0.467-2.023 4.521z"></path>
<path d="M190.342 104.761c0.32 0.014 0.64 0.014 0.96 0 0.276-0.025 0.55-0.069 0.817-0.132 0.25-0.053 0.496-0.121 0.736-0.203 0.225-0.079 0.449-0.176 0.684-0.273v-2.503h-2.043c-0.050 0.002-0.101-0.004-0.148-0.019s-0.091-0.039-0.127-0.069c-0.034-0.025-0.060-0.056-0.078-0.091s-0.026-0.073-0.024-0.112v-0.855h3.963v4.266c-0.323 0.2-0.665 0.377-1.021 0.529-0.364 0.155-0.744 0.282-1.134 0.379-0.418 0.106-0.845 0.183-1.277 0.229-0.495 0.047-0.993 0.071-1.491 0.071-0.881 0.007-1.755-0.134-2.574-0.414-0.765-0.265-1.459-0.661-2.043-1.163-0.569-0.508-1.016-1.106-1.318-1.763-0.322-0.738-0.481-1.521-0.47-2.309-0.011-0.794 0.145-1.582 0.46-2.327 0.294-0.66 0.742-1.26 1.318-1.763 0.583-0.501 1.278-0.894 2.043-1.155 0.875-0.284 1.803-0.424 2.738-0.414 0.475-0.001 0.95 0.032 1.42 0.097 0.415 0.058 0.823 0.153 1.216 0.282 0.357 0.116 0.7 0.263 1.021 0.441 0.313 0.174 0.61 0.368 0.889 0.582l-0.49 0.688c-0.038 0.063-0.096 0.115-0.166 0.153s-0.15 0.058-0.232 0.059c-0.113-0.003-0.223-0.034-0.317-0.088-0.153-0.071-0.316-0.158-0.5-0.264-0.217-0.118-0.446-0.218-0.684-0.3-0.305-0.105-0.619-0.188-0.94-0.247-0.428-0.068-0.862-0.101-1.297-0.097-0.674-0.006-1.343 0.098-1.971 0.308-0.568 0.197-1.081 0.498-1.501 0.882-0.423 0.4-0.747 0.871-0.95 1.384-0.456 1.205-0.456 2.505 0 3.711 0.223 0.524 0.571 1.001 1.021 1.402 0.419 0.382 0.927 0.683 1.491 0.881 0.65 0.192 1.338 0.268 2.022 0.221z"></path>
<path d="M206.623 104.583h5.577v1.269h-7.283v-11.132h1.747l-0.041 9.862z"></path>
<path d="M218.002 105.853h-1.747v-11.132h1.747v11.132z"></path>
<path d="M224.498 94.774c0.104 0.051 0.194 0.12 0.266 0.203l7.466 8.391c-0.010-0.132-0.010-0.265 0-0.397 0-0.123 0-0.247 0-0.361v-7.933h1.522v11.176h-0.878c-0.13 0.009-0.261-0.012-0.378-0.062-0.106-0.055-0.199-0.127-0.276-0.211l-7.456-8.382c0 0.132 0 0.256 0 0.379s0 0.238 0 0.344v7.933h-1.461v-11.132h0.909c0.099 0 0.196 0.018 0.286 0.053z"></path>
<path d="M246.611 94.721v1.225h-6.19v3.675h5.015v1.181h-5.015v3.799h6.19v1.225h-7.987v-11.105h7.987z"></path>
<path d="M63.586 25.976l77.555 19.002v66.587l-77.555-18.993v-66.595zM58.611 20.3v75.506l87.494 21.443v-75.497l-87.494-21.452z"></path>
<path d="M105.504 152.3l-87.504-21.461v-75.498l87.504 21.452v75.507z"></path>
<path d="M60.061 25.121l76.544 18.764-32.552 28.097-76.554-18.773 32.562-28.088zM58.611 20.3l-40.611 35.042 87.504 21.452 40.601-35.042-87.494-21.452z"></path>
<path d="M110.427 148.053l35.678-30.794-35.678-8.752v39.545z"></path>
</symbol>
<symbol id="icon-com" viewBox="0 0 312 168">
<path d="M110.429 147.67c0.048 0.001 0.096 0.011 0.14 0.027s0.084 0.041 0.117 0.072l0.662 0.623c-0.514 0.504-1.15 0.907-1.863 1.182-0.835 0.3-1.736 0.444-2.642 0.424-0.851 0.015-1.697-0.12-2.484-0.396-0.71-0.254-1.348-0.635-1.872-1.118-0.533-0.501-0.945-1.088-1.209-1.726-0.289-0.712-0.432-1.461-0.422-2.215-0.012-0.758 0.143-1.512 0.455-2.222 0.289-0.643 0.726-1.23 1.283-1.726 0.566-0.487 1.242-0.87 1.987-1.125 0.816-0.27 1.684-0.405 2.559-0.396 0.812-0.017 1.621 0.106 2.377 0.361 0.656 0.243 1.258 0.581 1.781 0.998l-0.555 0.665c-0.038 0.047-0.086 0.088-0.141 0.12-0.065 0.038-0.145 0.056-0.223 0.050-0.086-0.005-0.169-0.030-0.24-0.071l-0.298-0.177-0.414-0.227c-0.179-0.084-0.364-0.157-0.555-0.219-0.246-0.075-0.498-0.134-0.754-0.177-0.325-0.051-0.655-0.075-0.986-0.071-0.63-0.007-1.255 0.095-1.838 0.297-0.544 0.188-1.035 0.472-1.441 0.835-0.413 0.386-0.731 0.838-0.936 1.331-0.233 0.563-0.348 1.157-0.34 1.755-0.010 0.607 0.105 1.21 0.34 1.783 0.202 0.488 0.514 0.938 0.919 1.323 0.379 0.359 0.849 0.64 1.375 0.821 0.541 0.191 1.121 0.288 1.706 0.283 0.338 0.004 0.676-0.015 1.010-0.057 0.546-0.057 1.070-0.219 1.532-0.474 0.232-0.13 0.451-0.277 0.654-0.439 0.085-0.069 0.197-0.11 0.315-0.113z"></path>
<path d="M129.558 144.541c0.010 0.751-0.141 1.497-0.447 2.201-0.27 0.638-0.695 1.221-1.247 1.709s-1.219 0.87-1.957 1.122c-1.621 0.528-3.413 0.528-5.035 0-0.733-0.256-1.396-0.639-1.946-1.125-0.552-0.496-0.98-1.084-1.259-1.726-0.596-1.425-0.596-2.983 0-4.408 0.283-0.643 0.71-1.232 1.259-1.733 0.555-0.471 1.217-0.84 1.946-1.083 1.619-0.538 3.415-0.538 5.035 0 0.736 0.255 1.401 0.638 1.954 1.125 0.545 0.492 0.97 1.072 1.25 1.705 0.307 0.709 0.458 1.459 0.447 2.215zM127.819 144.541c0.013-0.601-0.094-1.199-0.315-1.769-0.186-0.488-0.487-0.939-0.886-1.323-0.388-0.364-0.866-0.649-1.399-0.835-1.178-0.387-2.482-0.387-3.66 0-0.533 0.186-1.011 0.471-1.399 0.835-0.404 0.382-0.709 0.833-0.894 1.323-0.421 1.152-0.421 2.386 0 3.538 0.187 0.49 0.491 0.94 0.894 1.323 0.389 0.361 0.867 0.644 1.399 0.828 1.18 0.377 2.48 0.377 3.66 0 0.533-0.184 1.011-0.466 1.399-0.828 0.397-0.385 0.699-0.836 0.886-1.323 0.222-0.57 0.328-1.168 0.315-1.769z"></path>
<path d="M142.61 146.396l0.174 0.396c0.066-0.142 0.124-0.269 0.19-0.396 0.063-0.133 0.135-0.263 0.215-0.389l4.232-6.573c0.083-0.113 0.157-0.184 0.24-0.205 0.113-0.029 0.23-0.041 0.348-0.035h1.25v10.69h-1.482v-7.86c0-0.099 0-0.212 0-0.333-0.008-0.122-0.008-0.245 0-0.368l-4.256 6.665c-0.054 0.1-0.14 0.185-0.249 0.243s-0.235 0.090-0.364 0.089h-0.24c-0.129 0.001-0.256-0.029-0.365-0.088s-0.195-0.144-0.248-0.244l-4.381-6.707c0 0.127 0 0.255 0 0.382s0 0.241 0 0.34v7.86h-1.432v-10.669h1.25c0.117-0.006 0.235 0.006 0.348 0.035 0.103 0.043 0.185 0.116 0.232 0.205l4.323 6.58c0.085 0.122 0.157 0.249 0.215 0.382z"></path>
<path d="M158.534 145.865v4.004h-1.656v-10.676h3.693c0.697-0.011 1.392 0.067 2.062 0.233 0.536 0.13 1.033 0.357 1.458 0.665 0.368 0.289 0.651 0.648 0.828 1.047 0.196 0.436 0.291 0.899 0.281 1.366 0.008 0.468-0.097 0.933-0.306 1.365-0.199 0.41-0.505 0.775-0.894 1.068-0.425 0.321-0.924 0.563-1.466 0.708-0.645 0.176-1.319 0.26-1.996 0.248l-2.004-0.028zM158.534 144.719h2.004c0.435 0.005 0.869-0.050 1.283-0.163 0.342-0.098 0.658-0.255 0.928-0.46 0.249-0.196 0.441-0.438 0.563-0.707 0.136-0.285 0.203-0.591 0.199-0.899 0.020-0.297-0.037-0.594-0.166-0.87s-0.326-0.525-0.579-0.729c-0.633-0.422-1.427-0.626-2.227-0.573h-2.004v4.4z"></path>
<path d="M180.793 149.884h-1.309c-0.131 0.004-0.26-0.031-0.364-0.099-0.094-0.067-0.168-0.151-0.215-0.248l-1.126-2.583h-5.656l-1.168 2.583c-0.043 0.095-0.114 0.177-0.207 0.241-0.105 0.072-0.238 0.11-0.373 0.106h-1.309l4.969-10.691h1.723l5.035 10.691zM172.595 145.914h4.671l-1.971-4.351c-0.151-0.327-0.275-0.663-0.373-1.005l-0.19 0.559c-0.058 0.17-0.124 0.326-0.182 0.453l-1.954 4.345z"></path>
<path d="M187.949 139.242c0.099 0.046 0.184 0.112 0.248 0.191l7.246 8.059c0-0.127 0-0.255 0-0.375s0-0.241 0-0.354v-7.571h1.482v10.691h-0.828c-0.118 0.003-0.234-0.019-0.34-0.064-0.102-0.051-0.192-0.118-0.265-0.198l-7.237-8.052c0.008 0.123 0.008 0.245 0 0.368 0 0.12 0 0.227 0 0.326v7.621h-1.482v-10.691h0.878c0.102-0.002 0.204 0.015 0.298 0.050z"></path>
<path d="M209.131 145.631v4.245h-1.656v-4.245l-4.579-6.439h1.482c0.128-0.006 0.254 0.026 0.356 0.092 0.090 0.069 0.166 0.15 0.224 0.241l2.865 4.153c0.116 0.177 0.215 0.34 0.298 0.495s0.149 0.304 0.207 0.453l0.215-0.46c0.080-0.168 0.175-0.332 0.282-0.488l2.824-4.182c0.059-0.083 0.132-0.16 0.215-0.226 0.098-0.073 0.226-0.111 0.356-0.106h1.499l-4.588 6.467z"></path>
<path d="M141.79 121.251c0.72 0.078 1.449 0.142 2.186 0.198 11.174-4.271 20.626-11.26 27.176-20.096s9.906-19.124 9.65-29.58l-12.314-10.521c2.504 11.133 1.333 22.641-3.382 33.237s-12.788 19.862-23.316 26.762z"></path>
<path d="M137.393 120.762l0.331 0.057c11.25-6.875 19.827-16.476 24.622-27.56s5.587-23.143 2.275-34.617l-17.539-14.985c7.094 12.318 9.95 26.103 8.234 39.752s-7.93 26.603-17.923 37.353z"></path>
<path d="M196.875 84.127c-2.98 11.489-10.217 21.85-20.636 29.546-3.043 2.26-6.325 4.273-9.805 6.014 8.485-2.131 16.283-5.898 22.794-11.011s11.561-11.435 14.76-18.479l-7.113-6.070z"></path>
<path d="M194.084 82.435l-10.128-8.653c-0.193 9.866-3.476 19.507-9.507 27.922s-14.589 15.296-24.785 19.929h0.050c2.272-0.001 4.542-0.117 6.799-0.347 9.529-3.323 17.947-8.61 24.503-15.389s11.045-14.839 13.068-23.461z"></path>
<path d="M138.858 37.337l-12.082-10.337c-10.801 3.566-20.090 9.835-26.652 17.987s-10.091 17.806-10.124 27.699v0c0.041 10.932 4.347 21.54 12.238 30.145s18.916 14.717 31.329 17.366c11.081-11.535 17.569-25.789 18.521-40.69s-3.683-29.673-13.229-42.17z"></path>
<path d="M222 80.843c-0.044-12.97-6.093-25.398-16.828-34.569s-25.28-14.34-40.461-14.377c-7.015-0.006-13.97 1.1-20.512 3.262l73.975 63.204c2.533-5.587 3.83-11.527 3.826-17.518z"></path>
</symbol>
<symbol id="icon-close" viewBox="0 0 8 8">    <path d="M8 0.805714L7.19429 0L4 3.19429L0.805714 0L0 0.805714L3.19429 4L0 7.19429L0.805714 8L4 4.80571L7.19429 8L8 7.19429L4.80571 4L8 0.805714Z"/>    </symbol>

<symbol id="icon-mail" viewBox="0 0 20 15">
<path d="M17.5 0h-15c-1.031 0-1.866 0.844-1.866 1.875l-0.009 11.25c0 1.031 0.844 1.875 1.875 1.875h15c1.031 0 1.875-0.844 1.875-1.875v-11.25c0-1.031-0.844-1.875-1.875-1.875zM17.125 3.984l-6.628 4.144c-0.3 0.187-0.694 0.187-0.994 0l-6.628-4.144c-0.234-0.15-0.375-0.403-0.375-0.675 0-0.628 0.684-1.003 1.219-0.675l6.281 3.928 6.281-3.928c0.534-0.328 1.219 0.047 1.219 0.675 0 0.272-0.141 0.525-0.375 0.675z"></path>
</symbol>
<symbol id="icon-phone" viewBox="0 0 13 13">
<path d="M11.726 8.865l-1.838-0.21c-0.441-0.051-0.876 0.101-1.187 0.412l-1.332 1.332c-2.048-1.042-3.727-2.714-4.769-4.769l1.339-1.339c0.311-0.311 0.463-0.745 0.412-1.187l-0.21-1.824c-0.087-0.731-0.702-1.281-1.44-1.281h-1.252c-0.818 0-1.498 0.68-1.447 1.498 0.384 6.18 5.326 11.116 11.499 11.499 0.818 0.051 1.498-0.63 1.498-1.447v-1.252c0.007-0.731-0.543-1.346-1.274-1.433z"></path>
</symbol>
<symbol id="icon-person-black-18dp-1" viewBox="0 0 12 12">
<path d="M6 6c1.105 0 2-0.895 2-2s-0.895-2-2-2c-1.105 0-2 0.895-2 2s0.895 2 2 2zM6 7c-1.335 0-4 0.67-4 2v0.5c0 0.275 0.225 0.5 0.5 0.5h7c0.275 0 0.5-0.225 0.5-0.5v-0.5c0-1.33-2.665-2-4-2z"></path>
</symbol>
<symbol id="icon-icon-send" viewBox="0 0 29 24">
<path d="M28.8 0l-28.8 13.5 9.204 2.841 14.196-11.091-10.798 12.14 0.009 0.003-0.011-0.003v6.61l5.162-5.018 6.539 2.018 4.5-21z"></path>
</symbol>
</defs>
</svg>
